# xmcd
#
# Track frame offsets: 
#        150
#        1987
#        21687
#        41462
#        61255
#        65900
#        85725
#        100512
#        108337
#        110137
#        131412
#        154200
#        168062
#        170397
#        189237
#        202937
#        215855
#        239015
#        258417
#
# Disc length: 3477 seconds
#
# Revision: 1
# Processed by: cddbd v1.5.2PL0 Copyright (c) Steve Scherf et al.
# Submitted via: ExactAudioCopy v0.95b4
#
DISCID=060d9313
DTITLE=Chet Baker - Boston 1954
DYEAR=1992
DGENRE=Jazz
TTITLE0=Introduction
TTITLE1=Isn't It Romantic
TTITLE2=The Wind
TTITLE3=Winter Wonderland
TTITLE4=Intermission
TTITLE5=Maid In Mexico
TTITLE6=My Funny Valentine
TTITLE7=Happy Little Sunbeam
TTITLE8=Introduction
TTITLE9=Long Ago And Far Away
TTITLE10=My Old Flame
TTITLE11=Band Aid
TTITLE12=Intermission
TTITLE13=A Line For Lyons
TTITLE14=My Funny Valentine
TTITLE15=Bea's Flat
TTITLE16=Russ Job
TTITLE17=Time After Time
TTITLE18=Five Brothers
EXTD=YEAR: 1954
EXTT0=
EXTT1=
EXTT2=
EXTT3=
EXTT4=
EXTT5=
EXTT6=
EXTT7=
EXTT8=
EXTT9=
EXTT10=
EXTT11=
EXTT12=
EXTT13=
EXTT14=
EXTT15=
EXTT16=
EXTT17=
EXTT18=
PLAYORDER=
